# xmcd CD database file
#
# Track frame offsets:
#	150
#	17824
#	36006
#	56480
#	70635
#	89484
#	113325
#	121964
#	137383
#	153610
#	165136
#	181336
#	194407
#
# Disc length: 2802 seconds
#
# Revision: 0
# Processed by: cddbd v1.5.2PL0 Copyright (c) Steve Scherf et al.
# Submitted via: CDex 1.51
#
DISCID=9c0af00d
DTITLE=Bernhard von der Goltz - Moonriver - Great Jazz Melodies for Classical Guitar
DYEAR=2003
DGENRE=Jazz
TTITLE0=Memories of tomorrow
TTITLE1=A child is born
TTITLE2=Song for my father
TTITLE3=Alfonsina y el mar
TTITLE4=Moanin
TTITLE5=Moon river
TTITLE6=Tico tico
TTITLE7=My romance
TTITLE8=Samba di orfeu
TTITLE9=Mity
TTITLE10=The song is you
TTITLE11=But beautiful
TTITLE12=Watch what happens
EXTD=YEAR: 2003
EXTT0=
EXTT1=
EXTT2=
EXTT3=
EXTT4=
EXTT5=
EXTT6=
EXTT7=
EXTT8=
EXTT9=
EXTT10=
EXTT11=
EXTT12=
PLAYORDER=
